<svg width="80" height="81" viewBox="0 0 80 81" fill="none" xmlns="http://www.w3.org/2000/svg">
<rect width="80" height="81" rx="4" fill="#1E552A"/>
<circle cx="39.5" cy="40.5" r="27.5" fill="white"/>
<path d="M47 28C47 30.2091 45.2091 32 43 32C40.7909 32 39 30.2091 39 28C39 25.7909 40.7909 24 43 24C45.2091 24 47 25.7909 47 28Z" fill="#1E552A"/>
<path d="M42.5 35.9999C39.3276 33.7339 35.7445 35.5756 32.8675 37.8018C32.6911 37.9383 32.8543 38.2161 33.0684 38.1536C40.1913 36.0763 36.933 42.2009 35.5 46.4999C34 50.9999 33 53.9999 36.5 56.4999C39.5946 58.7103 44.6435 57.012 46.8085 54.5153C46.9571 54.3439 46.6986 54.104 46.4956 54.2052C45.2769 54.8128 43.4982 54.9981 42 53.4999C40 51.4999 42 47.9999 42.5 45.9999C43 43.9999 46 38.4999 42.5 35.9999Z" fill="#1E552A"/>
</svg>
