<svg width="80" height="81" viewBox="0 0 80 81" fill="none" xmlns="http://www.w3.org/2000/svg">
<rect width="80" height="81" rx="4" fill="#1E552A"/>
<path d="M56.0158 30.4167L38.8504 19.9352C38.053 19.4483 38.2996 18.2309 39.2237 18.0927L44.3979 17.319C45.777 17.1128 47.1847 17.3933 48.3794 18.1124L62.3618 26.5283C63.9534 27.4863 63.493 29.9075 61.6609 30.2144L58.0749 30.8151C57.3629 30.9343 56.6319 30.7929 56.0158 30.4167Z" fill="white"/>
<path d="M14.0446 25C15.6487 22.1126 23.3641 20.5332 29.1934 19.8491C31.6921 19.5559 34.189 20.2228 36.3161 21.5663L42.5445 25.5L51.5511 30.814C52.2145 31.2054 52.1917 32.1417 51.4681 32.4058C45.152 34.7111 33.4612 33.9581 32.5445 39C31.5445 44.5 34.983 45.5 37.0445 45.5C38.7964 45.5 44.9327 43.8146 50.5 42.5C56.0553 41.1882 61.044 40.2487 60.5445 39C59.8644 37.2996 55.2472 39.171 49.5 40.5C43.8931 41.7966 37.5383 43.5 37.0445 43.5C36.0445 43.5 34.0445 42 34.5445 39.5C35.0445 37 57.0218 32.6641 60.0445 33C64.5445 33.5 68.5445 37.5 67.0445 42.5C65.5445 47.5 40.0445 52.5 35.0445 53C30.0445 53.5 16.0446 38.5 14.0446 36C12.0446 33.5 11.5446 29.5 14.0446 25Z" fill="white"/>
<path d="M12.0445 44C11.6445 41.6 14.0444 39.5 15.0443 40C16.0443 40.5 31.0446 55.5 35.0445 55.5C39.0445 55.5 60.5445 49 63.5445 48.5C66.5444 48 68.0445 51 66.0445 53.5C64.0445 56 39.5445 63.5 33.5445 63C27.5445 62.5 12.5445 47 12.0445 44Z" fill="white"/>
</svg>
