<svg width="80" height="81" viewBox="0 0 80 81" fill="none" xmlns="http://www.w3.org/2000/svg">
<rect width="80" height="81" rx="4" fill="#1E552A"/>
<path fill-rule="evenodd" clip-rule="evenodd" d="M31.3655 26C31.0143 26 30.6887 26.1843 30.5079 26.4856L23 39V51C23 51.5522 23.4478 52 24 52H27V57C27 57.5522 27.4478 58 28 58H32.1936C32.7458 58 33.1936 57.5522 33.1936 57V52H48.7419V57C48.7419 57.5522 49.1897 58 49.7419 58H53.9355C54.4878 58 54.9355 57.5522 54.9355 57V52H57C57.5522 52 58 51.5522 58 51V39L50.588 26.4902C50.408 26.1863 50.0809 26 49.7277 26H31.3655ZM33.9851 30.1292C33.6438 30.1292 33.326 30.303 33.1423 30.5906L29.1442 36.8486C28.7189 37.5144 29.1969 38.3872 29.9868 38.3872H50.0776C50.8676 38.3872 51.3456 37.5144 50.9204 36.8486L46.9221 30.5906C46.7384 30.303 46.4208 30.1292 46.0795 30.1292H33.9851ZM28.5 47C29.8807 47 31 45.8806 31 44.5C31 43.1194 29.8807 42 28.5 42C27.1193 42 26 43.1194 26 44.5C26 45.8806 27.1193 47 28.5 47ZM54 44.5C54 45.8806 52.8807 47 51.5 47C50.1193 47 49 45.8806 49 44.5C49 43.1194 50.1193 42 51.5 42C52.8807 42 54 43.1194 54 44.5Z" fill="white"/>
<path fill-rule="evenodd" clip-rule="evenodd" d="M12 21C12 16.5817 15.5817 13 20 13H60C64.4183 13 68 16.5817 68 21V61C68 65.4183 64.4183 69 60 69H20C15.5817 69 12 65.4183 12 61V21ZM20 19H60C61.1046 19 62 19.8954 62 21V61C62 62.1046 61.1046 63 60 63H20C18.8954 63 18 62.1046 18 61V21C18 19.8954 18.8954 19 20 19Z" fill="white"/>
</svg>
