<svg width="80" height="81" viewBox="0 0 80 81" fill="none" xmlns="http://www.w3.org/2000/svg">
<rect width="80" height="81" rx="4" fill="#1E552A"/>
<path fill-rule="evenodd" clip-rule="evenodd" d="M13 21C12.4478 21 12 21.4478 12 22V54C12 54.5522 12.4478 55 13 55H66C66.5522 55 67 54.5522 67 54V22C67 21.4478 66.5522 21 66 21H13ZM17 25C16.4478 25 16 25.4478 16 26V50C16 50.5522 16.4478 51 17 51H62C62.5522 51 63 50.5522 63 50V26C63 25.4478 62.5522 25 62 25H17Z" fill="white"/>
<path d="M25.7071 59.2929L27.2071 57.7929C27.3946 57.6054 27.649 57.5 27.9142 57.5H51.0858C51.351 57.5 51.6054 57.6054 51.7929 57.7929L53.2929 59.2929C53.9229 59.9229 53.4767 61 52.5858 61H26.4142C25.5233 61 25.0771 59.9229 25.7071 59.2929Z" fill="white"/>
</svg>
