<svg width="80" height="81" viewBox="0 0 80 81" fill="none" xmlns="http://www.w3.org/2000/svg">
<rect width="80" height="81" rx="4" fill="#1E552A"/>
<rect x="12" y="13" width="56" height="56" rx="5" fill="white"/>
<path d="M40.7272 26C48.5881 26 55.7685 28.976 61.2478 33.8852C61.6663 34.2602 61.6718 34.9081 61.2735 35.3045L58.7443 37.822C58.3624 38.2022 57.7493 38.2097 57.3428 37.856C52.8676 33.9627 47.066 31.6129 40.7272 31.6129C34.195 31.6129 28.2333 34.1083 23.7057 38.2168C23.3051 38.5803 22.689 38.584 22.2997 38.2084L19.7343 35.7333C19.3312 35.3444 19.3251 34.6989 19.7347 34.3167C25.2705 29.1509 32.6387 26 40.7272 26Z" fill="#1E552A"/>
<path d="M40.7272 37.2258C45.4926 37.2258 49.8716 38.916 53.321 41.7416C53.7633 42.104 53.7769 42.7665 53.3716 43.1699L50.8239 45.7058C50.4535 46.0744 49.8638 46.0926 49.4473 45.777C47.0108 43.9308 43.9938 42.8387 40.7272 42.8387C37.33 42.8387 34.2029 44.0198 31.7178 46.002C31.3063 46.3302 30.7112 46.324 30.3324 45.9585L27.7508 43.4677C27.3413 43.0726 27.3421 42.4139 27.7739 42.0432C31.2761 39.0367 35.7946 37.2258 40.7272 37.2258Z" fill="#1E552A"/>
<path d="M40.7272 55C42.7502 55 44.3902 53.3247 44.3902 51.2581C44.3902 49.1915 42.7502 47.5161 40.7272 47.5161C38.7042 47.5161 37.0643 49.1915 37.0643 51.2581C37.0643 53.3247 38.7042 55 40.7272 55Z" fill="#1E552A"/>
</svg>
