<svg width="80" height="81" viewBox="0 0 80 81" fill="none" xmlns="http://www.w3.org/2000/svg">
<rect width="80" height="81" rx="4" fill="#1E552A"/>
<path fill-rule="evenodd" clip-rule="evenodd" d="M59.3443 41.26C59.6813 41.7656 60.1486 42.4073 60.6263 43.043C63.437 43.4829 65.1356 44.7833 66.0475 46.0643C66.5128 46.7179 65.8199 47.3875 65.0297 47.2489C60.3795 46.4333 56.8378 49.6806 58.533 54.8218C58.7355 55.4357 58.3895 56.123 57.751 56.2246C53.7369 56.8635 50.6274 56.541 48.5649 55.7791C48.6073 57.2503 47.331 59.2598 43.8442 59.2598C38.3442 59.2598 30.3442 54.7598 29.8442 53.7598C29.3442 52.7598 28.8442 51.2598 31.8442 52.2598C34.8442 53.2598 36.8443 51.7598 37.8443 48.2598L42.8442 30.7598C43.8442 29.2598 45.8442 29.2598 45.3442 31.7598C44.8442 34.2598 41.3442 45.2598 39.8442 49.7598C38.404 54.0805 42.0343 58.8622 46.7517 54.8104C46.3308 54.4809 46.0267 54.1247 45.8443 53.7598C44.8443 51.7598 44.3443 45.2597 54.8443 43.2597C55.1537 43.2008 55.4559 43.1494 55.7511 43.1051C55.9753 42.1347 55.9343 41.2441 55.8875 40.2256V40.2256C55.8665 39.769 55.8443 39.2868 55.8443 38.7602C55.8443 36.9184 56.1157 36.4335 56.8583 35.1064L56.8583 35.1063C57.1237 34.632 57.4493 34.0501 57.8443 33.2602C59.3443 30.2602 59.3443 26.7602 55.3443 25.2602C51.3443 23.7602 47.8443 25.7606 46.8443 27.7602C45.8443 29.7597 43.8443 27.7602 44.3443 26.7602C44.8443 25.7602 46.8443 23.2597 50.8443 22.26C54.8443 21.2604 58.3443 23.26 60.3443 26.26C62.3443 29.2601 60.8443 33.7601 59.3443 35.7601C57.8443 37.7601 58.3443 39.76 59.3443 41.26ZM63.8443 57.2598C66.3296 57.2598 68.3443 55.2451 68.3443 52.7598C68.3443 50.2745 66.3296 48.2598 63.8443 48.2598C61.359 48.2598 59.3443 50.2745 59.3443 52.7598C59.3443 55.2451 61.359 57.2598 63.8443 57.2598Z" fill="white"/>
<path d="M36.4663 40.3151C35.4663 42.3151 34.4663 44.3151 33.4663 43.8151C32.4663 42.815 33.9663 40.8151 34.9663 38.8151C35.9663 36.8151 37.4663 33.8151 38.4663 34.3151C39.4663 34.8151 37.4663 38.3151 36.4663 40.3151Z" fill="white"/>
<path d="M33.2441 46.8152C34.2764 46.127 33.4093 44.8961 32.6163 44.1411C32.3903 43.9259 32.0619 43.8506 31.7715 43.9651C30.2478 44.5658 30.2871 45.8582 30.7441 46.3152C31.2441 46.8152 31.7441 47.8152 33.2441 46.8152Z" fill="white"/>
<path fill-rule="evenodd" clip-rule="evenodd" d="M29.2678 47.7015C30.2416 47.1132 31.4902 47.7808 31.5419 48.9173L31.8863 56.4945C31.9389 57.6521 30.715 58.4296 29.6895 57.8901L22.8011 54.2662C21.7677 53.7225 21.7244 52.2586 22.7239 51.6548L29.2678 47.7015ZM30.4999 49.5C30.4827 49.1212 29.8245 48.7666 29.4999 48.9627L23.9999 52.5C23.6667 52.7013 23.6554 53.3188 23.9999 53.5L29.4999 56.4945C29.8417 56.6743 30.5174 56.3859 30.4999 56V49.5Z" fill="white"/>
<path fill-rule="evenodd" clip-rule="evenodd" d="M29.4662 43.7598C29.4662 45.2598 27.9662 46.7598 26.9662 47.2598C26.2162 47.7598 25.2162 48.5098 24.2162 49.2598C23.2723 49.9677 22.3284 50.6756 21.5947 51.1733C21.5096 51.2311 21.4327 51.2994 21.373 51.3832C20.7381 52.2744 20.1778 54.1156 22.4662 55.2598L22.6775 55.3654C23.6213 55.8373 23.2853 57.2598 22.2301 57.2598H16.2326C15.7804 57.2598 15.3845 56.9564 15.267 56.5197L12.0337 44.5104C11.9894 44.346 11.9836 44.1717 12.0478 44.014C12.3337 43.3117 13.1897 42.2598 14.9662 42.2598H26.8694C26.9353 42.2598 26.9984 42.2659 27.0628 42.2799C27.9215 42.4666 29.4662 42.9896 29.4662 43.7598ZM14.9662 44.2598C14.9662 45.2598 16.9662 45.2598 20.9662 45.2598C24.9662 45.2598 27.4662 45.2598 27.4662 44.2598C27.4662 43.2598 26.4662 43.2598 24.9662 43.2598H16.9662C15.9662 43.2598 14.9662 43.2598 14.9662 44.2598ZM16.2293 46.7598H18.2662C18.3767 46.7598 18.4662 46.8493 18.4662 46.9598V54.2925C18.4662 54.5253 18.1358 54.5703 18.0735 54.346L16.0366 47.0133C16.0012 46.8859 16.0971 46.7598 16.2293 46.7598Z" fill="white"/>
<path fill-rule="evenodd" clip-rule="evenodd" d="M26.5725 40.7087C24.165 35.9169 17.3516 36.3191 15.3768 40.6728C15.1486 41.1758 14.5559 41.3986 14.053 41.1705C13.55 40.9423 13.3272 40.3496 13.5554 39.8467C16.2234 33.9648 25.1957 33.5136 28.3596 39.8108C28.6076 40.3043 28.4085 40.9054 27.915 41.1533C27.4215 41.4013 26.8205 41.2022 26.5725 40.7087Z" fill="white"/>
</svg>
