<svg width="80" height="81" viewBox="0 0 80 81" fill="none" xmlns="http://www.w3.org/2000/svg">
<rect width="80" height="81" rx="4" fill="#1E552A"/>
<path fill-rule="evenodd" clip-rule="evenodd" d="M37.7292 33.8281C41.0269 26.9027 38.094 11.5724 30.797 17.2275C23.5 22.8827 24.7163 28.5378 25.8716 32.0039C27.331 36.3821 34.4314 40.7535 37.7292 33.8281ZM26.7837 44.5912C27.1485 36.9294 20.5813 27.0784 17.2976 29.9972C14.014 32.916 13.1019 41.1251 14.9261 44.956C16.7504 48.787 26.4188 52.253 26.7837 44.5912ZM63.7024 29.9972C60.4187 27.0784 53.8515 36.9294 54.2163 44.5912C54.5812 52.253 64.2496 48.787 66.0739 44.956C67.8981 41.1251 66.986 32.916 63.7024 29.9972ZM43.2708 33.8281C39.9731 26.9027 42.906 11.5724 50.203 17.2275C57.5 22.8827 56.2837 28.5378 55.1284 32.0039C53.669 36.3821 46.5686 40.7535 43.2708 33.8281ZM33.7158 41.1251C35.5607 38.412 38.327 37.7501 40.3493 37.789C42.3714 37.7504 45.1369 38.4126 46.9815 41.1251C47.7567 42.2652 48.3267 43.1202 48.7714 43.7872L48.7716 43.7875C50.1055 45.7884 50.3107 46.0962 51.5421 47.3276C51.7506 47.5361 52.012 47.774 52.3066 48.042L52.3068 48.0422C54.3321 49.8852 57.924 53.1537 56.65 58.0906C55.1906 63.7458 49.7179 66.4822 45.1573 65.2052C43.372 64.7053 41.7545 64.4011 40.3485 64.2707C38.9426 64.4011 37.3252 64.7053 35.5401 65.2052C30.9795 66.4821 25.5067 63.7458 24.0473 58.0906C22.7733 53.1537 26.3652 49.8851 28.3905 48.0422L28.3906 48.0422C28.6852 47.774 28.9467 47.5361 29.1552 47.3276C30.3866 46.0962 30.5918 45.7884 31.9258 43.7874L31.9258 43.7874C32.3704 43.1204 32.9405 42.2653 33.7158 41.1251Z" fill="white"/>
</svg>
