<svg width="80" height="81" viewBox="0 0 80 81" fill="none" xmlns="http://www.w3.org/2000/svg">
<rect width="80" height="81" rx="4" fill="#1E552A"/>
<path d="M16.4418 56L38.4823 56C39.1805 56 39.6494 55.3047 39.2714 54.7177C37.0577 51.2808 31.5653 48.5 27.9999 48.5C24.4843 48.5 18.2073 51.5899 15.7203 54.7145C15.2732 55.2763 15.7239 56 16.4418 56Z" fill="white"/>
<path fill-rule="evenodd" clip-rule="evenodd" d="M59.4376 65.3736C58.5178 67.5068 56.3959 69 53.9254 69H51.9254C48.6116 69 45.9254 66.3137 45.9254 63V53C45.9254 51.8954 46.8208 51 47.9254 51H57.9254C58.9178 51 59.7414 51.7229 59.8984 52.6708C60.3885 52.5775 60.9289 52.5286 61.4782 52.5646C62.6534 52.6416 63.9658 53.1237 64.7828 54.4855C65.6592 55.9461 66.1096 58.0074 65.3671 60.0863C64.6286 62.1542 62.7785 64.0535 59.4376 65.3736ZM57.9254 54.023V63C57.9254 65.2091 56.1345 67 53.9254 67H51.9254C49.7162 67 47.9254 65.2091 47.9254 63V53H57.9254V53.9778C57.925 53.9929 57.925 54.0079 57.9254 54.023ZM59.9254 54.7142C60.3495 54.6025 60.8548 54.528 61.3475 54.5603C62.0807 54.6083 62.6849 54.8762 63.0679 55.5144C63.6915 56.5538 63.9912 57.9925 63.4836 59.4136C63.0645 60.5871 62.0457 61.8826 59.9254 62.9647V54.7142Z" fill="white"/>
<path fill-rule="evenodd" clip-rule="evenodd" d="M13.0277 57.159C12.8141 55.8933 13.8723 55 14.9253 55H40.886C41.9806 55 43.0137 55.9402 42.8011 57.1971C42.0166 61.8357 37.4971 69 28.4081 69C23.8855 69 20.2363 67.2107 17.6303 64.8533C15.0463 62.5159 13.4349 59.571 13.0277 57.159ZM15.0317 57C15.402 58.8764 16.7322 61.344 18.972 63.3701C21.2596 65.4395 24.444 67 28.4081 67C36.154 67 40.0667 60.9821 40.8049 57H15.0317Z" fill="white"/>
<path fill-rule="evenodd" clip-rule="evenodd" d="M41.9254 20.874C43.6506 20.4299 44.9254 18.8638 44.9254 17C44.9254 14.7909 43.1345 13 40.9254 13C38.7162 13 36.9254 14.7909 36.9254 17C36.9254 18.8638 38.2001 20.4299 39.9254 20.874V25.0117C35.5717 25.2158 31.9114 28.0713 30.5228 32H25.3396C23.5578 32 22.6654 34.1543 23.9254 35.4142L29.9254 41.4142V55.5769L31.9254 55.7308V35.5C31.9254 35.2451 31.9366 34.9927 31.9586 34.7435C32.0718 34.3155 32.4618 34 32.9254 34H47.9254C48.389 34 48.7789 34.3155 48.8922 34.7435C48.9141 34.9927 48.9254 35.2451 48.9254 35.5V51.7917L50.9254 51.625V38H55.4254V52C55.4254 52.5523 55.8731 53 56.4254 53C56.9776 53 57.4254 52.5523 57.4254 52V33C57.4254 32.4477 56.9776 32 56.4254 32C55.8731 32 55.4254 32.4477 55.4254 33V36H50.9254V35C50.9254 34.806 50.9069 34.6163 50.8718 34.4326C50.387 29.631 46.6672 25.7846 41.9254 25.1063V20.874ZM40.9254 19C42.0299 19 42.9254 18.1046 42.9254 17C42.9254 15.8954 42.0299 15 40.9254 15C39.8208 15 38.9254 15.8954 38.9254 17C38.9254 18.1046 39.8208 19 40.9254 19ZM40.4254 27C36.9787 27 34.0111 29.0515 32.6771 32H47.9254C48.0106 32 48.095 32.0036 48.1784 32.0105C46.8467 29.0564 43.8762 27 40.4254 27ZM25.3396 34H30.0317C30.0112 34.1433 29.9936 34.2875 29.979 34.4326C29.9438 34.6163 29.9254 34.806 29.9254 35V38.5858L25.3396 34Z" fill="white"/>
<path d="M48.2509 65.9825L47.3698 64H37.7753L35.5753 66H47.9254C48.0354 66 48.144 65.9941 48.2509 65.9825Z" fill="white"/>
</svg>
