<svg width="111" height="42" viewBox="0 0 111 42" fill="none" xmlns="http://www.w3.org/2000/svg">
<path d="M9.67756 41.8713C9.12955 41.8911 8.58948 41.8951 8.08912 41.8713C7.11513 41.8453 6.14696 41.7121 5.20213 41.4742C3.62596 41.1448 2.22077 40.2596 1.24295 38.9803C0.560099 37.9967 0.13293 36.8585 0 35.6684L0.059567 35.5771L4.82488 32.6146L8.69272 30.2002C8.69272 30.2002 8.22414 33.1547 9.93171 34.4255C10.2564 34.669 10.6305 34.8384 11.0277 34.9219C14.0021 35.5612 14.9273 35.2475 18.0248 32.5154L22.8973 27.0353C22.8973 27.0353 18.132 28.3219 14.697 27.3649C12.3144 26.7017 10.6028 24.9544 11.6154 20.9317C13.5533 15.6462 20.3797 7.63647 20.3797 7.63647C22.9569 7.85488 24.4858 7.89459 27.8016 7.91841L21.7616 16.8851L21.7378 16.9209L21.7139 16.9606C21.3486 17.5443 19.0811 21.2533 19.8872 22.2819C20.7609 23.3977 22.667 23.5963 24.3468 23.1873C25.7645 22.8418 27.48 21.8133 29.1121 20.0461C29.1206 20.0417 29.1275 20.0347 29.1319 20.0263C29.2749 19.8754 29.4139 19.7205 29.5529 19.5577L40.0445 7.78737L48.5427 7.58087C42.2366 14.2682 23.1952 34.3977 19.5537 38.0034C15.9122 41.6092 9.67756 41.8713 9.67756 41.8713Z" fill="#F2F3F2"/>
<path d="M42.5821 21.6187L41.093 24.1284L46.029 23.4057L45.2785 25.3396L39.4291 26.9281L37.6302 29.954L43.9482 28.7627L42.1731 33.3334C40.0724 33.9807 37.8049 34.6558 35.2793 35.3865C34.9417 35.4858 34.5883 35.589 34.223 35.7042C31.61 36.4984 28.3179 37.6897 24.8115 38.7897L30.4981 31.3201L32.3526 28.8818L35.3071 24.9941L37.1219 22.6115L40.3821 18.3306C42.0897 18.0288 43.6344 17.7032 45.1474 17.318C46.3785 17.0083 47.5817 16.6548 48.8088 16.2498L47.0297 20.8046L42.5821 21.6187Z" fill="#F2F3F2"/>
<path d="M60.7776 20.332L59.9198 19.5378C59.9198 19.5378 60.2216 19.3274 60.6108 19.0692C60.756 18.9726 60.8735 18.8397 60.9515 18.6836C61.0295 18.5276 61.0654 18.3539 61.0556 18.1797L60.9325 16.0115L60.8451 14.566C60.8255 14.2392 60.7297 13.9215 60.5655 13.6382C60.4012 13.355 60.173 13.114 59.8991 12.9346C59.6252 12.7552 59.3132 12.6424 58.9879 12.605C58.6626 12.5676 58.3331 12.6068 58.0256 12.7195L57.1162 13.0808C56.4888 13.3111 55.8879 13.5348 55.3134 13.7519L53.4708 14.4469C52.486 14.844 51.5885 15.1617 50.7585 15.4635L49.726 18.5927L45.2109 32.3009C47.4744 31.5742 49.5791 30.8594 51.6083 30.1327L53.0856 23.5963L56.2625 22.8894L55.7661 28.6197C56.8184 28.2226 57.8866 27.8255 58.9827 27.4284C59.9 27.0789 60.7419 26.7732 61.5361 26.4952L61.2303 21.3089C61.2238 21.1241 61.1804 20.9425 61.1027 20.7747C61.0249 20.607 60.9144 20.4564 60.7776 20.332ZM55.7224 20.8999C55.0354 21.0985 54.2769 21.297 53.5581 21.5115L54.4556 17.4887C55.0036 17.3656 55.9487 16.9407 56.7231 16.8335C56.8107 16.8215 56.8998 16.8307 56.9831 16.8603C57.0664 16.8899 57.1413 16.939 57.2016 17.0036C57.262 17.0682 57.3059 17.1464 57.3297 17.2315C57.3536 17.3166 57.3566 17.4062 57.3386 17.4927L56.8383 20.1931C56.8105 20.6497 56.1632 20.7768 55.7224 20.8999Z" fill="#F2F3F2"/>
<path d="M81.2049 6.0321L75.5024 22.8338C75.4823 22.8907 75.4467 22.9409 75.3998 22.9787C75.3528 23.0166 75.2962 23.0407 75.2363 23.0482C74.5334 23.1515 73.8742 23.2706 73.2786 23.4017L71.5313 23.8028C70.197 24.0966 69.0097 24.3627 67.866 24.6407H67.8342C67.4489 24.7341 67.0478 24.7423 66.6591 24.6645C66.2703 24.5867 65.9032 24.4249 65.5836 24.1903C65.2639 23.9558 64.9994 23.6542 64.8085 23.3067C64.6177 22.9592 64.5051 22.5742 64.4786 22.1786L63.6844 10.7101C66.2656 9.8245 68.9143 8.95483 71.3923 8.22415L69.1486 18.7436C69.1306 18.8401 69.134 18.9394 69.1586 19.0345C69.1831 19.1295 69.2282 19.218 69.2907 19.2938C69.3532 19.3695 69.4315 19.4306 69.5202 19.4728C69.6089 19.5149 69.7057 19.5371 69.8039 19.5378H71.5909C71.8666 19.5364 72.1339 19.4426 72.3499 19.2712C72.5659 19.0998 72.7182 18.8609 72.7822 18.5927L75.562 7.0765C76.0266 6.96134 76.4793 6.85809 76.9121 6.76676C78.2941 6.47554 79.725 6.23066 81.2049 6.0321Z" fill="#F2F3F2"/>
<path d="M94.4247 5.73026C94.2539 7.00896 94.0276 8.73638 93.7655 10.7021L90.4099 10.6147L87.9876 22.6948C85.7637 22.5677 83.4685 22.532 81.2923 22.5915L85.5295 10.4797L82.1421 10.3884L83.532 5.76203C84.7498 5.64819 85.9927 5.57009 87.2609 5.52774C88.6269 5.48008 90.0208 5.48405 91.4265 5.52774C92.4193 5.57009 93.4187 5.6376 94.4247 5.73026Z" fill="#F2F3F2"/>
<path d="M104.158 7.5213L97.9232 24.0847C96.7716 23.767 94.9092 23.1078 93.3763 22.8934L96.3864 5.93286C99.0133 6.26518 101.611 6.79618 104.158 7.5213Z" fill="#F2F3F2"/>
<path d="M99.6705 5.16242C101.775 3.78842 103.447 2.19204 103.979 0L111 0.341514C109.122 5.06712 105.726 6.9375 99.6705 5.16242Z" fill="#F2F3F2"/>
</svg>
