<svg width="282" height="109" viewBox="0 0 282 109" fill="none" xmlns="http://www.w3.org/2000/svg">
<path d="M26.37 108.45C24.99 108.45 23.63 108.51 22.37 108.45C19.9173 108.385 17.4793 108.049 15.1 107.45C11.1309 106.621 7.59233 104.392 5.13 101.17C3.41044 98.693 2.33474 95.8267 2 92.83L2.15 92.6L14.15 85.14L23.89 79.06C23.89 79.06 22.71 86.5 27.01 89.7C27.8274 90.3012 28.7657 90.7174 29.76 90.92C37.25 92.53 39.58 91.74 47.38 84.86L59.64 71.1C59.64 71.1 47.64 74.34 38.99 71.93C32.99 70.26 28.68 65.86 31.23 55.73C36.13 42.41 53.32 22.24 53.32 22.24C59.81 22.79 63.66 22.89 72.01 22.95L56.8 45.53L56.74 45.62L56.68 45.72C55.76 47.19 50.05 56.53 52.08 59.12C54.28 61.93 59.08 62.43 63.31 61.4C66.88 60.53 71.2 57.94 75.31 53.49C75.3265 53.4935 75.3435 53.4935 75.36 53.49C75.72 53.11 76.07 52.72 76.42 52.31L102.87 22.65L124.27 22.13C108.39 38.97 60.44 89.66 51.27 98.74C42.1 107.82 26.37 108.45 26.37 108.45Z" fill="black"/>
<path d="M109.23 57.45L105.48 63.77L117.91 61.91L116.02 66.78L101.29 70.83L96.76 78.45L112.67 75.45L108.2 86.97C102.91 88.6 97.2 90.3 90.84 92.14C89.99 92.39 89.1 92.65 88.18 92.94C81.6 94.94 73.31 97.94 64.48 100.71L78.8 81.9L83.47 75.76L90.91 65.99L95.48 59.99L103.69 49.21C107.99 48.45 111.88 47.63 115.69 46.66C118.79 45.88 121.82 44.99 124.91 43.97L120.43 55.4L109.23 57.45Z" fill="black"/>
<path d="M155.05 54.2101L152.89 52.2101C152.89 52.2101 153.65 51.6801 154.63 51.0301C154.995 50.786 155.29 50.4511 155.487 50.0584C155.683 49.6656 155.774 49.2285 155.75 48.7901L155.44 43.3301L155.22 39.6901C155.171 38.867 154.93 38.0669 154.516 37.3537C154.102 36.6404 153.528 36.0337 152.838 35.5819C152.148 35.1302 151.362 34.8459 150.543 34.7518C149.724 34.6578 148.894 34.7565 148.12 35.0401L145.83 35.8801C144.25 36.4601 142.737 37.0234 141.29 37.5701L136.65 39.3201C134.17 40.3201 131.91 41.1201 129.82 41.8801L127.22 49.7601L115.85 84.35C121.55 82.52 126.85 80.72 131.96 78.89L135.68 62.4301L143.68 60.6501L142.43 75.0801C145.08 74.0801 147.77 73.08 150.53 72.03C152.84 71.15 154.96 70.38 156.96 69.68L156.21 56.6501C156.189 56.1867 156.075 55.7322 155.876 55.3133C155.677 54.8943 155.396 54.5193 155.05 54.2101ZM142.32 55.6501C140.59 56.1501 138.68 56.6501 136.87 57.1901L139.13 47.0501C140.51 46.7401 142.89 45.6701 144.84 45.4001C145.061 45.3698 145.285 45.3929 145.495 45.4674C145.705 45.542 145.893 45.6658 146.045 45.8285C146.197 45.9912 146.308 46.1879 146.368 46.4022C146.428 46.6166 146.435 46.8422 146.39 47.0601L145.13 53.8601C145.06 55.0101 143.43 55.3301 142.32 55.6501Z" fill="black"/>
<path d="M206.49 18.2L192.13 60.51C192.079 60.6533 191.99 60.7796 191.871 60.875C191.753 60.9703 191.611 61.0309 191.46 61.05C189.69 61.31 188.03 61.61 186.53 61.94L182.14 62.94C178.78 63.68 175.79 64.35 172.91 65.05H172.83C171.86 65.2854 170.85 65.3059 169.871 65.11C168.892 64.9142 167.967 64.5066 167.162 63.916C166.357 63.3254 165.691 62.5659 165.211 61.6909C164.73 60.8158 164.446 59.8462 164.38 58.85L162.38 29.97C168.88 27.74 175.55 25.55 181.79 23.71L176.13 50.21C176.085 50.4531 176.093 50.7031 176.155 50.9425C176.217 51.1819 176.33 51.4048 176.488 51.5955C176.645 51.7863 176.842 51.9401 177.065 52.0463C177.289 52.1525 177.533 52.2084 177.78 52.21H182.28C182.974 52.2066 183.647 51.9702 184.191 51.5386C184.735 51.1071 185.119 50.5054 185.28 49.83L192.28 20.83C193.45 20.54 194.59 20.28 195.68 20.05C199.16 19.3233 202.763 18.7067 206.49 18.2Z" fill="black"/>
<path d="M239.78 17.44C239.35 20.66 238.78 25.01 238.12 29.96L229.67 29.74L223.57 60.16C217.97 59.84 212.19 59.75 206.71 59.9L217.38 29.4L208.85 29.17L212.35 17.52C215.417 17.2334 218.547 17.0367 221.74 16.93C225.18 16.81 228.69 16.82 232.23 16.93C234.73 17.0367 237.247 17.2067 239.78 17.44Z" fill="black"/>
<path d="M264.29 21.9L248.59 63.65C245.69 62.85 241 61.19 237.14 60.65L244.72 18.03C251.332 18.8242 257.874 20.1179 264.29 21.9Z" fill="black"/>
<path d="M252.99 16C258.29 12.55 262.5 8.53 263.84 3L281.52 3.86C276.79 15.76 268.24 20.48 252.99 16Z" fill="black"/>
<path d="M24.37 105.45C22.99 105.45 21.63 105.51 20.37 105.45C17.9173 105.385 15.4793 105.049 13.1 104.45C9.1309 103.621 5.59233 101.392 3.13 98.17C1.41044 95.693 0.334743 92.8267 0 89.83L0.150002 89.6L12.15 82.14L21.89 76.06C21.89 76.06 20.71 83.5 25.01 86.7C25.8274 87.3012 26.7657 87.7174 27.76 87.92C35.25 89.53 37.58 88.74 45.38 81.86L57.64 68.1C57.64 68.1 45.64 71.34 36.99 68.93C30.99 67.26 26.68 62.86 29.23 52.73C34.13 39.41 51.32 19.24 51.32 19.24C57.81 19.79 61.66 19.89 70.01 19.95L54.8 42.53L54.74 42.62L54.68 42.72C53.76 44.19 48.05 53.53 50.08 56.12C52.28 58.93 57.08 59.43 61.31 58.4C64.88 57.53 69.2 54.94 73.31 50.49C73.3265 50.4935 73.3435 50.4935 73.36 50.49C73.72 50.11 74.07 49.72 74.42 49.31L100.87 19.65L122.27 19.13C106.39 35.97 58.44 86.66 49.27 95.74C40.1 104.82 24.37 105.45 24.37 105.45Z" fill="white"/>
<path d="M107.23 54.45L103.48 60.77L115.91 58.91L114.02 63.78L99.29 67.83L94.76 75.45L110.67 72.45L106.2 83.97C100.91 85.6 95.2 87.3 88.84 89.14C87.99 89.39 87.1 89.65 86.18 89.94C79.6 91.94 71.31 94.94 62.48 97.71L76.8 78.9L81.47 72.76L88.91 62.99L93.48 56.99L101.69 46.21C105.99 45.45 109.88 44.63 113.69 43.66C116.79 42.88 119.82 41.99 122.91 40.97L118.43 52.4L107.23 54.45Z" fill="white"/>
<path d="M153.05 51.2101L150.89 49.2101C150.89 49.2101 151.65 48.6801 152.63 48.0301C152.995 47.786 153.29 47.4511 153.487 47.0584C153.683 46.6656 153.774 46.2285 153.75 45.7901L153.44 40.3301L153.22 36.6901C153.171 35.867 152.93 35.0669 152.516 34.3537C152.102 33.6404 151.528 33.0337 150.838 32.5819C150.148 32.1302 149.362 31.8459 148.543 31.7518C147.724 31.6578 146.894 31.7565 146.12 32.0401L143.83 32.8801C142.25 33.4601 140.737 34.0234 139.29 34.5701L134.65 36.3201C132.17 37.3201 129.91 38.1201 127.82 38.8801L125.22 46.7601L113.85 81.35C119.55 79.52 124.85 77.72 129.96 75.89L133.68 59.4301L141.68 57.6501L140.43 72.0801C143.08 71.0801 145.77 70.08 148.53 69.03C150.84 68.15 152.96 67.38 154.96 66.68L154.21 53.6501C154.189 53.1867 154.075 52.7322 153.876 52.3133C153.677 51.8943 153.396 51.5193 153.05 51.2101ZM140.32 52.6501C138.59 53.1501 136.68 53.6501 134.87 54.1901L137.13 44.0501C138.51 43.7401 140.89 42.6701 142.84 42.4001C143.061 42.3698 143.285 42.3929 143.495 42.4674C143.705 42.542 143.893 42.6658 144.045 42.8285C144.197 42.9912 144.308 43.1879 144.368 43.4022C144.428 43.6166 144.435 43.8422 144.39 44.0601L143.13 50.8601C143.06 52.0101 141.43 52.3301 140.32 52.6501Z" fill="white"/>
<path d="M204.49 15.2L190.13 57.51C190.079 57.6533 189.99 57.7796 189.871 57.875C189.753 57.9703 189.611 58.0309 189.46 58.05C187.69 58.31 186.03 58.61 184.53 58.94L180.14 59.94C176.78 60.68 173.79 61.35 170.91 62.05H170.83C169.86 62.2854 168.85 62.3059 167.871 62.11C166.892 61.9142 165.967 61.5066 165.162 60.916C164.357 60.3254 163.691 59.5659 163.211 58.6909C162.73 57.8158 162.446 56.8462 162.38 55.85L160.38 26.97C166.88 24.74 173.55 22.55 179.79 20.71L174.13 47.21C174.085 47.4531 174.093 47.7031 174.155 47.9425C174.217 48.1819 174.33 48.4048 174.488 48.5955C174.645 48.7863 174.842 48.9401 175.065 49.0463C175.289 49.1525 175.533 49.2084 175.78 49.21H180.28C180.974 49.2066 181.647 48.9702 182.191 48.5386C182.735 48.1071 183.119 47.5054 183.28 46.83L190.28 17.83C191.45 17.54 192.59 17.28 193.68 17.05C197.16 16.3233 200.763 15.7067 204.49 15.2Z" fill="white"/>
<path d="M237.78 14.44C237.35 17.66 236.78 22.01 236.12 26.96L227.67 26.74L221.57 57.16C215.97 56.84 210.19 56.75 204.71 56.9L215.38 26.4L206.85 26.17L210.35 14.52C213.417 14.2334 216.547 14.0367 219.74 13.93C223.18 13.81 226.69 13.82 230.23 13.93C232.73 14.0367 235.247 14.2067 237.78 14.44Z" fill="white"/>
<path d="M262.29 18.9L246.59 60.65C243.69 59.85 239 58.19 235.14 57.65L242.72 15.03C249.332 15.8242 255.874 17.1179 262.29 18.9Z" fill="white"/>
<path d="M250.99 13C256.29 9.55 260.5 5.53 261.84 0L279.52 0.860001C274.79 12.76 266.24 17.48 250.99 13Z" fill="white"/>
</svg>
