<svg width="15" height="12" viewBox="0 0 15 12" fill="none" xmlns="http://www.w3.org/2000/svg">
<g opacity="0.9">
<path d="M13.5893 0H1.40579C0.629383 0 0 0.629383 0 1.40579V9.84052C0 10.6169 0.629383 11.2463 1.40579 11.2463H13.5893C14.3657 11.2463 14.9951 10.6169 14.9951 9.84052V1.40579C14.9951 0.629383 14.3657 0 13.5893 0ZM13.5893 1.40579V2.60085C12.9326 3.13561 11.8857 3.96713 9.6476 5.71965C9.15437 6.10762 8.17735 7.03969 7.49754 7.02882C6.81784 7.03981 5.84049 6.10748 5.34747 5.71965C3.10972 3.9674 2.06255 3.1357 1.40579 2.60085V1.40579H13.5893ZM1.40579 9.84052V4.40474C2.07688 4.93927 3.02857 5.68934 4.47913 6.82522C5.11927 7.3291 6.24029 8.44146 7.49754 8.4347C8.7486 8.44146 9.85542 7.34524 10.5157 6.82545C11.9662 5.6896 12.9182 4.93932 13.5893 4.40477V9.84052H1.40579Z" fill="#F2F3F2"/>
</g>
</svg>
