<svg width="61" height="61" viewBox="0 0 61 61" fill="none" xmlns="http://www.w3.org/2000/svg">
<g clip-path="url(#clip0_202_245)">
<path d="M15.4683 60.7841C13.1088 60.7578 10.7716 60.325 8.55914 59.5049C6.9435 58.9077 5.48175 57.957 4.28076 56.7222C3.04269 55.5236 2.09056 54.0615 1.4951 52.4445C0.675637 50.2321 0.243511 47.895 0.217686 45.5359C0.0364804 41.614 0 40.4376 0 30.5C0 20.5624 0.0400686 19.3902 0.215892 15.4653C0.244851 13.1071 0.677508 10.7713 1.4951 8.55914C2.09345 6.94323 3.04424 5.4809 4.27837 4.27837C5.47788 3.04141 6.94031 2.09016 8.55734 1.4951C10.7698 0.674957 13.1071 0.242223 15.4665 0.215892C19.3896 0.0364804 20.5678 0 30.5 0C40.4322 0 41.6098 0.0400686 45.5347 0.215892C47.8935 0.244646 50.23 0.677307 52.4427 1.4951C54.059 2.09095 55.521 3.04186 56.721 4.27777C57.9573 5.47818 58.9086 6.9406 59.5049 8.55734C60.3252 10.7698 60.7582 13.107 60.7847 15.4665C60.9641 19.3914 61.0006 20.5666 61.0006 30.5012C61.0006 40.4358 60.9641 41.611 60.7847 45.5359C60.7562 47.895 60.3234 50.2317 59.5049 52.4445C58.8858 54.0491 57.9376 55.5063 56.7212 56.7223C55.5049 57.9384 54.0475 58.8862 52.4427 59.5049C50.2302 60.3252 47.893 60.7582 45.5335 60.7847C41.6122 60.9641 40.4334 61.0006 30.4988 61.0006C20.5642 61.0006 19.389 60.9659 15.4677 60.7847" fill="url(#paint0_radial_202_245)"/>
<path d="M15.4683 60.7841C13.1088 60.7578 10.7716 60.325 8.55914 59.5049C6.9435 58.9077 5.48175 57.957 4.28076 56.7222C3.04269 55.5236 2.09056 54.0615 1.4951 52.4445C0.675637 50.2321 0.243511 47.895 0.217686 45.5359C0.0364804 41.614 0 40.4376 0 30.5C0 20.5624 0.0400686 19.3902 0.215892 15.4653C0.244851 13.1071 0.677508 10.7713 1.4951 8.55914C2.09345 6.94323 3.04424 5.4809 4.27837 4.27837C5.47788 3.04141 6.94031 2.09016 8.55734 1.4951C10.7698 0.674957 13.1071 0.242223 15.4665 0.215892C19.3896 0.0364804 20.5678 0 30.5 0C40.4322 0 41.6098 0.0400686 45.5347 0.215892C47.8935 0.244646 50.23 0.677307 52.4427 1.4951C54.059 2.09095 55.521 3.04186 56.721 4.27777C57.9573 5.47818 58.9086 6.9406 59.5049 8.55734C60.3252 10.7698 60.7582 13.107 60.7847 15.4665C60.9641 19.3914 61.0006 20.5666 61.0006 30.5012C61.0006 40.4358 60.9641 41.611 60.7847 45.5359C60.7562 47.895 60.3234 50.2317 59.5049 52.4445C58.8858 54.0491 57.9376 55.5063 56.7212 56.7223C55.5049 57.9384 54.0475 58.8862 52.4427 59.5049C50.2302 60.3252 47.893 60.7582 45.5335 60.7847C41.6122 60.9641 40.4334 61.0006 30.4988 61.0006C20.5642 61.0006 19.389 60.9659 15.4677 60.7847" fill="url(#paint1_radial_202_245)"/>
<path d="M23.0107 30.6298C23.0108 29.1357 23.454 27.6753 24.2841 26.4331C25.1143 25.191 26.2941 24.2229 27.6745 23.6513C29.0549 23.0797 30.5737 22.9302 32.039 23.2219C33.5043 23.5135 34.8502 24.2331 35.9065 25.2896C36.9629 26.3462 37.6821 27.6923 37.9734 29.1577C38.2647 30.623 38.1149 32.1419 37.543 33.5221C36.971 34.9023 36.0027 36.0819 34.7603 36.9118C33.5179 37.7416 32.0574 38.1845 30.5634 38.1842C28.5601 38.1839 26.6389 37.3878 25.2225 35.9711C23.8062 34.5544 23.0106 32.6331 23.0107 30.6298ZM18.9267 30.6298C18.9267 32.9313 19.6092 35.1811 20.8878 37.0948C22.1665 39.0084 23.9839 40.4999 26.1102 41.3807C28.2365 42.2614 30.5763 42.4918 32.8335 42.0428C35.0908 41.5938 37.1643 40.4855 38.7917 38.8581C40.4191 37.2307 41.5274 35.1573 41.9764 32.9C42.4254 30.6427 42.195 28.3029 41.3142 26.1766C40.4335 24.0503 38.942 22.2329 37.0283 20.9543C35.1147 19.6756 32.8649 18.9931 30.5634 18.9931C29.0352 18.9931 27.522 19.294 26.1101 19.8788C24.6983 20.4635 23.4154 21.3207 22.3348 22.4012C21.2542 23.4818 20.3971 24.7647 19.8123 26.1765C19.2276 27.5884 18.9266 29.1016 18.9267 30.6298ZM39.9412 18.532C39.941 19.0699 40.1002 19.5957 40.3988 20.043C40.6974 20.4903 41.122 20.839 41.6188 21.0451C42.1156 21.2511 42.6623 21.3052 43.1898 21.2005C43.7174 21.0958 44.202 20.837 44.5825 20.4569C44.9629 20.0768 45.2221 19.5924 45.3273 19.0649C45.4324 18.5375 45.3788 17.9907 45.1732 17.4937C44.9676 16.9967 44.6193 16.5719 44.1722 16.2729C43.7252 15.9739 43.1995 15.8142 42.6617 15.814C41.9408 15.8143 41.2495 16.1007 40.7396 16.6104C40.2298 17.12 39.943 17.8111 39.9424 18.532M21.4092 49.0763C19.9722 49.0605 18.5486 48.7975 17.2008 48.2989C16.2233 47.9221 15.3356 47.3449 14.5947 46.6043C13.8538 45.8637 13.2762 44.9762 12.8991 43.999C12.4002 42.6512 12.1372 41.2276 12.1216 39.7905C12.0116 37.402 11.9901 36.6843 11.9901 30.6328C11.9901 24.5812 12.014 23.8654 12.1216 21.4744C12.1391 20.0375 12.402 18.6142 12.8991 17.266C13.2758 16.2882 13.8532 15.4003 14.5941 14.6594C15.3351 13.9185 16.223 13.341 17.2008 12.9643C18.5485 12.4654 19.9721 12.2024 21.4092 12.1869C23.7977 12.0768 24.5154 12.0553 30.5645 12.0553C36.6137 12.0553 37.332 12.0786 39.7229 12.1875C41.1598 12.2049 42.5831 12.4678 43.9313 12.9649C44.9091 13.3417 45.797 13.9191 46.5379 14.66C47.2788 15.4009 47.8563 16.2889 48.233 17.2666C48.7319 18.6143 48.9949 20.038 49.0105 21.475C49.1205 23.8672 49.142 24.5812 49.142 30.6334C49.142 36.6855 49.1199 37.4008 49.0105 39.7917C48.9937 41.2287 48.7308 42.6521 48.233 44.0001C47.8559 44.9774 47.2783 45.8649 46.5374 46.6055C45.7965 47.3461 44.9088 47.9233 43.9313 48.3C42.5836 48.7989 41.16 49.0619 39.7229 49.0775C37.3343 49.1875 36.6167 49.2091 30.5645 49.2091C24.5124 49.2091 23.7971 49.1869 21.4092 49.0775M21.2214 8.10644C19.3411 8.14341 17.4806 8.4993 15.7194 9.15897C14.2139 9.74109 12.8466 10.6314 11.7052 11.7728C10.5638 12.9142 9.67346 14.2815 9.09135 15.787C8.43176 17.5483 8.07587 19.4087 8.03881 21.289C7.92698 23.7051 7.90186 24.4777 7.90186 30.6322C7.90186 36.7866 7.92757 37.5587 8.03881 39.9753C8.07586 41.8557 8.43175 43.7161 9.09135 45.4773C9.67349 46.9828 10.5638 48.3501 11.7052 49.4915C12.8466 50.6329 14.2139 51.5232 15.7194 52.1054C17.4807 52.7647 19.3411 53.1206 21.2214 53.1579C23.6387 53.268 24.4101 53.2949 30.5645 53.2949C36.719 53.2949 37.491 53.2692 39.9077 53.1579C41.788 53.1208 43.6484 52.7649 45.4097 52.1054C46.9152 51.5232 48.2825 50.6329 49.4239 49.4915C50.5653 48.3501 51.4556 46.9828 52.0377 45.4773C52.6982 43.7163 53.0541 41.8558 53.0903 39.9753C53.2003 37.5575 53.2254 36.7866 53.2254 30.6322C53.2254 24.4777 53.1997 23.7057 53.0903 21.289C53.0533 19.4087 52.6974 17.5483 52.0377 15.787C51.4556 14.2818 50.5655 12.9147 49.4245 11.7733C48.2834 10.632 46.9166 9.74149 45.4115 9.15897C43.6504 8.49887 41.7899 8.14297 39.9095 8.10644C37.4928 7.9958 36.7208 7.96948 30.5675 7.96948C24.4143 7.96948 23.6404 7.9952 21.2226 8.10644" fill="white"/>
</g>
<defs>
<radialGradient id="paint0_radial_202_245" cx="0" cy="0" r="1" gradientUnits="userSpaceOnUse" gradientTransform="translate(3.94766 59.664) scale(77.4473)">
<stop offset="0.09" stop-color="#FA8F21"/>
<stop offset="0.78" stop-color="#D82D7E"/>
</radialGradient>
<radialGradient id="paint1_radial_202_245" cx="0" cy="0" r="1" gradientUnits="userSpaceOnUse" gradientTransform="translate(42.2527 57.7048) scale(68.1543)">
<stop offset="0.64" stop-color="#8C3AAA" stop-opacity="0"/>
<stop offset="1" stop-color="#8C3AAA"/>
</radialGradient>
<clipPath id="clip0_202_245">
<rect width="61" height="61" fill="white"/>
</clipPath>
</defs>
</svg>
