<svg width="14" height="17" viewBox="0 0 14 17" fill="none" xmlns="http://www.w3.org/2000/svg">
<path fill-rule="evenodd" clip-rule="evenodd" d="M2 6.02434C2 2.70419 4.68082 0 8 0C11.3192 0 14 2.70419 14 6.02434C14 7.16143 13.6263 8.38848 13.1048 9.55843C12.5799 10.7361 11.8853 11.8999 11.1991 12.9222C10.5118 13.9462 9.82558 14.839 9.31166 15.4755C9.05444 15.794 8.83972 16.0492 8.68873 16.2253C8.61321 16.3134 8.55359 16.3818 8.51251 16.4286L8.46511 16.4823L8.45244 16.4965L8.44797 16.5015C8.44797 16.5015 8.44746 16.502 8 16.1047C7.55254 16.502 7.55234 16.5018 7.55234 16.5018L7.54756 16.4965L7.5349 16.4823L7.48749 16.4286C7.44641 16.3818 7.38679 16.3134 7.31127 16.2253C7.16028 16.0492 6.94556 15.794 6.68834 15.4755C6.17442 14.839 5.48825 13.9462 4.80091 12.9222C4.1147 11.8999 3.42006 10.7361 2.89519 9.55843C2.37374 8.38848 2 7.16143 2 6.02434ZM8 16.1047L7.55234 16.5018L8 17L8.44797 16.5015L8 16.1047ZM8 15.1862C8.10964 15.0551 8.23615 14.9017 8.37584 14.7287C8.87442 14.1112 9.53825 13.2472 10.2009 12.26C10.8647 11.2711 11.5201 10.1692 12.0077 9.07518C12.4987 7.97342 12.8 6.9227 12.8 6.02434C12.8 3.35057 10.644 1.19294 8 1.19294C5.35603 1.19294 3.2 3.35057 3.2 6.02434C3.2 6.9227 3.50126 7.97342 3.99232 9.07518C4.47994 10.1692 5.1353 11.2711 5.79909 12.26C6.46175 13.2472 7.12558 14.1112 7.62416 14.7287C7.76385 14.9017 7.89036 15.0551 8 15.1862ZM8 4.68228C7.27303 4.68228 6.67143 5.27746 6.67143 6.02434C6.67143 6.77121 7.27303 7.36639 8 7.36639C8.72697 7.36639 9.32857 6.77121 9.32857 6.02434C9.32857 5.27746 8.72697 4.68228 8 4.68228ZM5.47143 6.02434C5.47143 4.63108 6.59782 3.48934 8 3.48934C9.40218 3.48934 10.5286 4.63108 10.5286 6.02434C10.5286 7.41759 9.40218 8.55933 8 8.55933C6.59782 8.55933 5.47143 7.41759 5.47143 6.02434Z" fill="#F2F3F2"/>
</svg>
