<svg width="15" height="15" viewBox="0 0 15 15" fill="none" xmlns="http://www.w3.org/2000/svg">
<g opacity="0.9">
<path d="M12.7492 2.17897C11.3467 0.773183 9.47903 0 7.49419 0C3.39732 0 0.0635952 3.33373 0.0635952 7.43059C0.0635952 8.73932 0.405001 10.0179 1.05434 11.1459L0 14.9951L3.93955 13.9608C5.02402 14.5533 6.24572 14.8645 7.49084 14.8645H7.49419C11.5877 14.8645 14.9951 11.5308 14.9951 7.43394C14.9951 5.4491 14.1516 3.58476 12.7492 2.17897ZM7.49419 13.6127C6.38295 13.6127 5.29513 13.3148 4.3479 12.7525L4.12364 12.6186L1.78736 13.2311L2.40992 10.9518L2.26265 10.7175C1.64343 9.73341 1.31876 8.59874 1.31876 7.43059C1.31876 4.02658 4.09017 1.25517 7.49754 1.25517C9.14766 1.25517 10.6974 1.89781 11.8622 3.06596C13.027 4.2341 13.7433 5.78381 13.7399 7.43394C13.7399 10.8413 10.8982 13.6127 7.49419 13.6127ZM10.8815 8.987C10.6974 8.89328 9.78362 8.44477 9.61291 8.38452C9.44221 8.32093 9.31837 8.2908 9.19452 8.47824C9.07068 8.66568 8.71589 9.08072 8.60543 9.20791C8.49832 9.33176 8.38787 9.34849 8.20378 9.25477C7.11262 8.70919 6.39634 8.28076 5.67671 7.04568C5.48592 6.71766 5.86749 6.74109 6.22229 6.0315C6.28253 5.90766 6.25241 5.80055 6.20555 5.70683C6.15869 5.61311 5.78716 4.69935 5.63319 4.32782C5.48257 3.96633 5.32861 4.01654 5.2148 4.00984C5.1077 4.00315 4.98385 4.00315 4.86001 4.00315C4.73617 4.00315 4.53534 4.05001 4.36464 4.2341C4.19393 4.42154 3.7153 4.87005 3.7153 5.78381C3.7153 6.69758 4.38137 7.58121 4.47175 7.70506C4.56546 7.8289 5.78047 9.70328 7.64481 10.5099C8.82299 11.0187 9.2849 11.0622 9.87399 10.9752C10.2321 10.9216 10.9718 10.5267 11.1258 10.0916C11.2798 9.65643 11.2798 9.2849 11.2329 9.20791C11.1894 9.12423 11.0656 9.07737 10.8815 8.987Z" fill="#F2F3F2"/>
</g>
</svg>
