<svg width="15" height="15" viewBox="0 0 14 14" fill="none" xmlns="http://www.w3.org/2000/svg">
<path d="M10.7126 7.89391C10.5504 7.8149 9.74553 7.43679 9.59516 7.386C9.44479 7.33238 9.3357 7.30699 9.22662 7.465C9.11753 7.62302 8.805 7.97292 8.7077 8.08015C8.61336 8.18455 8.51606 8.19866 8.3539 8.11965C7.39273 7.65971 6.76178 7.29852 6.12789 6.25729C5.95983 5.98076 6.29594 6.00052 6.60847 5.4023C6.66154 5.2979 6.635 5.2076 6.59373 5.12859C6.55245 5.04958 6.22518 4.27925 6.08956 3.96603C5.95688 3.66128 5.82126 3.70361 5.72101 3.69797C5.62666 3.69232 5.51758 3.69232 5.40849 3.69232C5.2994 3.69232 5.1225 3.73183 4.97213 3.88702C4.82176 4.04504 4.40015 4.42316 4.40015 5.19349C4.40015 5.96383 4.98687 6.70878 5.06648 6.81318C5.14903 6.91758 6.21929 8.49777 7.86152 9.17781C8.89935 9.60671 9.30622 9.6434 9.82513 9.57003C10.1406 9.52488 10.7922 9.19192 10.9278 8.82509C11.0634 8.45826 11.0634 8.14505 11.0222 8.08015C10.9838 8.0096 10.8747 7.9701 10.7126 7.89391Z" fill="#F2F3F2"/>
<path fill-rule="evenodd" clip-rule="evenodd" d="M4.19336 11.3435L4.54869 11.5474C5.37425 12.0211 6.33091 12.2923 7.35394 12.2923C10.4722 12.2923 13.0001 9.76444 13.0001 6.64615C13.0001 3.52787 10.4722 1 7.35394 1C4.23568 1 1.70782 3.52787 1.70782 6.64615C1.70782 7.68539 1.98766 8.65622 2.47546 9.4907L2.68783 9.854L2.13088 11.8849L2.24416 11.8551C2.25146 11.8532 2.24879 11.8539 2.24709 11.8544L4.19336 11.3435ZM2.37938 12.8535L0.707764 13.2923C0.849325 12.7762 0.946575 12.4217 1.01339 12.1782C1.16001 11.6438 1.16003 11.6438 1.16005 11.6438C1.16008 11.6438 1.16011 11.6437 1.61215 9.99536C1.03727 9.01192 0.707818 7.86751 0.707818 6.64615C0.707818 2.97558 3.68339 0 7.35394 0C11.0245 0 14.0001 2.97558 14.0001 6.64615C14.0001 10.3167 11.0245 13.2923 7.35394 13.2923C6.15169 13.2923 5.02399 12.9731 4.05099 12.4148L2.37938 12.8535Z" fill="white"/>
</svg>
